<?xml version="1.0" encoding="UTF-8" standalone="no"?>
<!-- Created with Inkscape (http://www.inkscape.org/) -->

<svg
   xmlns:dc="http://purl.org/dc/elements/1.1/"
   xmlns:cc="http://creativecommons.org/ns#"
   xmlns:rdf="http://www.w3.org/1999/02/22-rdf-syntax-ns#"
   xmlns:svg="http://www.w3.org/2000/svg"
   xmlns="http://www.w3.org/2000/svg"
   xmlns:sodipodi="http://sodipodi.sourceforge.net/DTD/sodipodi-0.dtd"
   xmlns:inkscape="http://www.inkscape.org/namespaces/inkscape"
   version="1.1"
   id="svg32"
   width="148.36264"
   height="75.064392"
   viewBox="0 0 148.36264 75.064392"
   sodipodi:docname="birds.svg"
   inkscape:version="0.92.1 r15371">
  <metadata
     id="metadata38">
    <rdf:RDF>
      <cc:Work
         rdf:about="">
        <dc:format>image/svg+xml</dc:format>
        <dc:type
           rdf:resource="http://purl.org/dc/dcmitype/StillImage" />
        <dc:title></dc:title>
      </cc:Work>
    </rdf:RDF>
  </metadata>
  <defs
     id="defs36" />
  <sodipodi:namedview
     pagecolor="#ffffff"
     bordercolor="#666666"
     borderopacity="1"
     objecttolerance="10"
     gridtolerance="10"
     guidetolerance="10"
     inkscape:pageopacity="0"
     inkscape:pageshadow="2"
     inkscape:window-width="1239"
     inkscape:window-height="810"
     id="namedview34"
     showgrid="false"
     fit-margin-top="0"
     fit-margin-left="0"
     fit-margin-right="0"
     fit-margin-bottom="0"
     inkscape:zoom="2.5503356"
     inkscape:cx="77.636842"
     inkscape:cy="37.607891"
     inkscape:window-x="59"
     inkscape:window-y="45"
     inkscape:window-maximized="0"
     inkscape:current-layer="svg32" />
  <path
     style="fill:#000000"
     d="M 23.174314,72.749944 C 21.978441,71.477004 21,70.127004 21,69.749944 c 0,-1.49501 3.05557,-0.56943 4.207054,1.27439 1.111464,1.77974 1.381228,1.81765 2.93407,0.41235 0.940537,-0.85118 2.525315,-1.39059 3.521727,-1.1987 1.389465,0.26759 0.927399,0.87062 -1.982757,2.58765 -2.086928,1.23132 -3.915251,2.23876 -4.06294,2.23876 -0.147689,0 -1.246967,-1.0415 -2.44284,-2.31445 z m -10.159001,-1.43555 c 0.0084,-0.4125 0.439683,-1.42123 0.958359,-2.24164 0.767481,-1.21394 1.181953,-1.25273 2.226328,-0.20836 1.044375,1.04438 1.005586,1.45885 -0.208359,2.22633 -1.810523,1.14465 -2.996952,1.23381 -2.976328,0.22367 z M 0,67.411934 c 0,-0.47654 0.957011,-1.46411 2.126691,-2.19458 1.808411,-1.12937 2.364293,-1.09054 3.714287,0.25945 1.450125,1.45013 1.402942,1.58759 -0.544905,1.58759 -1.172874,0 -2.844303,0.27315 -3.714286,0.60699 C 0.711804,68.005234 0,67.888474 0,67.411934 Z m 39,-3.75392 c 0,-0.93743 -0.750241,-1.24248 -2.25,-0.91486 -2.210377,0.48286 -2.206467,0.45618 0.222042,-1.51541 1.359623,-1.10381 2.822123,-1.79056 3.25,-1.52612 1.142339,0.70601 0.949528,5.36277 -0.222042,5.36277 -0.55,0 -1,-0.63287 -1,-1.40638 z m -13.75,-0.2559 c -1.945268,-0.78493 -1.469503,-2.50062 0.596376,-2.15063 1.015507,0.17204 2.590507,-0.30478 3.5,-1.05959 C 30.619605,59.135214 31,59.109864 31,60.081714 c 0,0.69421 -0.7875,1.86 -1.75,2.59064 -1.898811,1.4414 -2.131272,1.48381 -4,0.72976 z m 27.938073,-5.96613 c -0.62306,-1.11335 -1.131897,-1.2715 -1.608707,-0.5 -1.588049,2.56951 -2.383122,0.86398 -1.195874,-2.5653 1.590291,-4.59345 3.226191,-5.27224 3.855213,-1.59966 0.26314,1.53635 0.815225,3.58087 1.226855,4.54337 0.95518,2.23347 -1.036127,2.33978 -2.277487,0.12159 z m 15.186456,-2.94444 c -3.581791,-3.96864 -2.90931,-5.42224 1.062966,-2.29765 2.595688,2.04177 2.713222,2.04857 4.085734,0.23637 1.347689,-1.77942 1.414638,-1.78174 1.444968,-0.0501 0.03715,2.12116 -1.717656,5.70891 -2.753381,5.62936 -0.393149,-0.0302 -2.121278,-1.61328 -3.840287,-3.51795 z m -32.30729,-6.427146 c 0.002,-0.825 0.606436,-2.58802 1.343196,-3.917823 1.337574,-2.414229 1.341237,-2.414699 2.464565,-0.315742 1.411692,2.63777 1.431303,3.540905 0.05846,2.692444 -0.586594,-0.362535 -1.697283,0.173407 -2.468196,1.190983 -1.089423,1.438004 -1.400848,1.515994 -1.398025,0.350138 z m 43.008066,-9.439367 c -5.247898,-2.640936 -4.27471,-3.97614 1.42731,-1.958256 2.36106,0.835554 5.53244,1.170494 7.74738,0.818229 4.57859,-0.728181 4.77217,-0.07701 0.59637,2.006152 -3.87833,1.934762 -4.27522,1.899581 -9.77106,-0.866125 z M 53.25,35.341002 c -4.445746,-0.551712 -4.115748,-2.276604 0.435549,-2.276604 2.405809,0 4.48783,-0.753705 5.996057,-2.17061 1.270779,-1.193835 2.589979,-1.891138 2.931555,-1.549562 0.799935,0.799934 -3.793082,6.643028 -5.113161,6.504806 -0.55,-0.05759 -2.4625,-0.286203 -4.25,-0.50803 z m 37.687825,-9.398484 c -1.19328,-2.339009 -2.79539,-4.878543 -3.56026,-5.643408 -0.76486,-0.764866 -1.85355,-2.255576 -2.4193,-3.312689 -1.85153,-3.459616 0.8602,-2.146602 5.4416,2.634813 l 4.36622,4.556836 2.47162,-3.158149 c 1.53671,-1.963549 3.164905,-3.024635 4.304445,-2.805178 1.63092,0.314085 1.50922,0.738732 -1.10466,3.854604 -1.615615,1.925898 -3.419635,4.373369 -4.008935,5.438823 -1.80967,3.271915 -3.22931,2.867113 -5.49073,-1.565652 z m 41.814865,-3.243039 c -2.06101,-1.174295 -3.74851,-2.472581 -3.75,-2.885081 -0.004,-1.175231 3.81878,-0.878434 5.96717,0.463258 1.56577,0.977836 2.87291,0.879855 6.73643,-0.504946 11.15331,-3.997678 6.82602,0.481522 -4.7063,4.871515 -0.275,0.104684 -2.18628,-0.770452 -4.2473,-1.944746 z M 145.84373,7.6207857 c -1.0892,-2.390528 -2.84374,-3.499208 -2.84374,-1.796935 0,1.045188 -4.07021,3.503675 -4.72181,2.85207 -0.28988,-0.28988 0.65394,-1.930586 2.09738,-3.646014 1.44344,-1.715428 2.62443,-3.534433 2.62443,-4.04223405 0,-0.507802 0.675,-0.92327497 1.5,-0.92327497 0.825,0 1.5,0.69734697 1.5,1.54966002 0,0.852313 0.67335,2.851775 1.49633,4.443249 0.93887,1.815576 1.12673,3.122016 0.50426,3.5067285 -0.54565,0.337227 -1.51623,-0.5372355 -2.15685,-1.9432495 z m -33.84374,-0.832949 c 0,-0.702108 -1.89008,-2.502108 -4.20017,-4 -5.11583,-3.31716902 -2.38314,-3.827745 3.73873,-0.698541 3.411,1.743541 4.62829,1.88249 8.76066,1 5.86107,-1.251661 5.70078,-1.250961 5.70078,-0.0249 0,0.55 -0.47174,1 -1.04831,1 -0.57656,0 -2.91109,0.9 -5.18783,2 -4.74367,2.291894 -7.76386,2.573316 -7.76386,0.723439 z"
     id="path42"
     inkscape:connector-curvature="0" />
</svg>
